<svg width="208" height="28" viewBox="0 0 208 28" fill="none" xmlns="http://www.w3.org/2000/svg">
<path d="M28.852 1.728V27H22.696V11.844L17.044 27H12.076L6.388 11.808V27H0.232V1.728H7.504L14.596 19.224L21.616 1.728H28.852ZM52.2149 16.632C52.2149 17.208 52.1789 17.808 52.1069 18.432H38.1749C38.2709 19.68 38.6669 20.64 39.3629 21.312C40.0829 21.96 40.9589 22.284 41.9909 22.284C43.5269 22.284 44.5949 21.636 45.1949 20.34H51.7469C51.4109 21.66 50.7989 22.848 49.9109 23.904C49.0469 24.96 47.9549 25.788 46.6349 26.388C45.3149 26.988 43.8389 27.288 42.2069 27.288C40.2389 27.288 38.4869 26.868 36.9509 26.028C35.4149 25.188 34.2149 23.988 33.3509 22.428C32.4869 20.868 32.0549 19.044 32.0549 16.956C32.0549 14.868 32.4749 13.044 33.3149 11.484C34.1789 9.924 35.3789 8.724 36.9149 7.884C38.4509 7.044 40.2149 6.624 42.2069 6.624C44.1509 6.624 45.8789 7.032 47.3909 7.848C48.9029 8.664 50.0789 9.828 50.9189 11.34C51.7829 12.852 52.2149 14.616 52.2149 16.632ZM45.9149 15.012C45.9149 13.956 45.5549 13.116 44.8349 12.492C44.1149 11.868 43.2149 11.556 42.1349 11.556C41.1029 11.556 40.2269 11.856 39.5069 12.456C38.8109 13.056 38.3789 13.908 38.2109 15.012H45.9149ZM81.0945 6.696C83.5905 6.696 85.5705 7.452 87.0345 8.964C88.5225 10.476 89.2665 12.576 89.2665 15.264V27H83.1465V16.092C83.1465 14.796 82.7985 13.8 82.1025 13.104C81.4305 12.384 80.4945 12.024 79.2945 12.024C78.0945 12.024 77.1465 12.384 76.4505 13.104C75.7785 13.8 75.4425 14.796 75.4425 16.092V27H69.3225V16.092C69.3225 14.796 68.9745 13.8 68.2785 13.104C67.6065 12.384 66.6705 12.024 65.4705 12.024C64.2705 12.024 63.3225 12.384 62.6265 13.104C61.9545 13.8 61.6185 14.796 61.6185 16.092V27H55.4625V6.912H61.6185V9.432C62.2425 8.592 63.0585 7.932 64.0665 7.452C65.0745 6.948 66.2145 6.696 67.4865 6.696C68.9985 6.696 70.3425 7.02 71.5185 7.668C72.7185 8.316 73.6545 9.24 74.3265 10.44C75.0225 9.336 75.9705 8.436 77.1705 7.74C78.3705 7.044 79.6785 6.696 81.0945 6.696ZM102.716 27.288C100.748 27.288 98.9718 26.868 97.3878 26.028C95.8278 25.188 94.5918 23.988 93.6798 22.428C92.7918 20.868 92.3478 19.044 92.3478 16.956C92.3478 14.892 92.8038 13.08 93.7158 11.52C94.6278 9.936 95.8758 8.724 97.4598 7.884C99.0438 7.044 100.82 6.624 102.788 6.624C104.756 6.624 106.532 7.044 108.116 7.884C109.7 8.724 110.948 9.936 111.86 11.52C112.772 13.08 113.228 14.892 113.228 16.956C113.228 19.02 112.76 20.844 111.824 22.428C110.912 23.988 109.652 25.188 108.044 26.028C106.46 26.868 104.684 27.288 102.716 27.288ZM102.716 21.96C103.892 21.96 104.888 21.528 105.704 20.664C106.544 19.8 106.964 18.564 106.964 16.956C106.964 15.348 106.556 14.112 105.74 13.248C104.948 12.384 103.964 11.952 102.788 11.952C101.588 11.952 100.592 12.384 99.7998 13.248C99.0078 14.088 98.6118 15.324 98.6118 16.956C98.6118 18.564 98.9958 19.8 99.7638 20.664C100.556 21.528 101.54 21.96 102.716 21.96ZM129.382 27L124.126 17.46H122.65V27H116.494V1.728H126.826C128.818 1.728 130.51 2.076 131.902 2.772C133.318 3.468 134.374 4.428 135.07 5.652C135.766 6.852 136.114 8.196 136.114 9.684C136.114 11.364 135.634 12.864 134.674 14.184C133.738 15.504 132.346 16.44 130.498 16.992L136.33 27H129.382ZM122.65 13.104H126.466C127.594 13.104 128.434 12.828 128.986 12.276C129.562 11.724 129.85 10.944 129.85 9.936C129.85 8.976 129.562 8.22 128.986 7.668C128.434 7.116 127.594 6.84 126.466 6.84H122.65V13.104ZM149.122 27.288C147.154 27.288 145.378 26.868 143.794 26.028C142.234 25.188 140.998 23.988 140.086 22.428C139.198 20.868 138.754 19.044 138.754 16.956C138.754 14.892 139.21 13.08 140.122 11.52C141.034 9.936 142.282 8.724 143.866 7.884C145.45 7.044 147.226 6.624 149.194 6.624C151.162 6.624 152.938 7.044 154.522 7.884C156.106 8.724 157.354 9.936 158.266 11.52C159.178 13.08 159.634 14.892 159.634 16.956C159.634 19.02 159.166 20.844 158.23 22.428C157.318 23.988 156.058 25.188 154.45 26.028C152.866 26.868 151.09 27.288 149.122 27.288ZM149.122 21.96C150.298 21.96 151.294 21.528 152.11 20.664C152.95 19.8 153.37 18.564 153.37 16.956C153.37 15.348 152.962 14.112 152.146 13.248C151.354 12.384 150.37 11.952 149.194 11.952C147.994 11.952 146.998 12.384 146.206 13.248C145.414 14.088 145.018 15.324 145.018 16.956C145.018 18.564 145.402 19.8 146.17 20.664C146.962 21.528 147.946 21.96 149.122 21.96ZM161.676 16.92C161.676 14.856 162.06 13.044 162.828 11.484C163.62 9.924 164.688 8.724 166.032 7.884C167.376 7.044 168.876 6.624 170.532 6.624C171.948 6.624 173.184 6.912 174.24 7.488C175.32 8.064 176.148 8.82 176.724 9.756V6.912H182.88V27H176.724V24.156C176.124 25.092 175.284 25.848 174.204 26.424C173.148 27 171.912 27.288 170.496 27.288C168.864 27.288 167.376 26.868 166.032 26.028C164.688 25.164 163.62 23.952 162.828 22.392C162.06 20.808 161.676 18.984 161.676 16.92ZM176.724 16.956C176.724 15.42 176.292 14.208 175.428 13.32C174.588 12.432 173.556 11.988 172.332 11.988C171.108 11.988 170.064 12.432 169.2 13.32C168.36 14.184 167.94 15.384 167.94 16.92C167.94 18.456 168.36 19.68 169.2 20.592C170.064 21.48 171.108 21.924 172.332 21.924C173.556 21.924 174.588 21.48 175.428 20.592C176.292 19.704 176.724 18.492 176.724 16.956ZM186.11 16.92C186.11 14.856 186.494 13.044 187.262 11.484C188.054 9.924 189.122 8.724 190.466 7.884C191.81 7.044 193.31 6.624 194.966 6.624C196.286 6.624 197.486 6.9 198.566 7.452C199.67 8.004 200.534 8.748 201.158 9.684V0.36H207.314V27H201.158V24.12C200.582 25.08 199.754 25.848 198.674 26.424C197.618 27 196.382 27.288 194.966 27.288C193.31 27.288 191.81 26.868 190.466 26.028C189.122 25.164 188.054 23.952 187.262 22.392C186.494 20.808 186.11 18.984 186.11 16.92ZM201.158 16.956C201.158 15.42 200.726 14.208 199.862 13.32C199.022 12.432 197.99 11.988 196.766 11.988C195.542 11.988 194.498 12.432 193.634 13.32C192.794 14.184 192.374 15.384 192.374 16.92C192.374 18.456 192.794 19.68 193.634 20.592C194.498 21.48 195.542 21.924 196.766 21.924C197.99 21.924 199.022 21.48 199.862 20.592C200.726 19.704 201.158 18.492 201.158 16.956Z" fill="black"/>
</svg>
